<?xml version="1.0" standalone="no"?>
<!DOCTYPE svg PUBLIC "-//W3C//DTD SVG 20010904//EN"
 "http://www.w3.org/TR/2001/REC-SVG-20010904/DTD/svg10.dtd">
<svg version="1.0" xmlns="http://www.w3.org/2000/svg"
 width="1280.000000pt" height="1070.000000pt" viewBox="0 0 1280.000000 1070.000000"
 preserveAspectRatio="xMidYMid meet">
<metadata>
Created by potrace 1.15, written by Peter Selinger 2001-2017
</metadata>
<g transform="translate(0.000000,1070.000000) scale(0.100000,-0.100000)"
fill="#000000" stroke="none">
<path d="M856 10689 c-203 -30 -333 -101 -393 -216 -74 -140 -78 -288 -27
-903 18 -223 21 -563 4 -680 -27 -201 -84 -348 -189 -493 -155 -213 -233 -509
-248 -937 -14 -415 52 -812 177 -1075 53 -110 96 -158 183 -199 155 -74 330
-101 667 -100 643 2 1545 155 2613 443 l107 29 0 -272 c0 -328 -16 -857 -30
-1021 -30 -345 -96 -699 -377 -2040 -344 -1645 -435 -2166 -437 -2495 -1 -183
6 -200 88 -200 233 0 885 326 1389 694 65 47 122 86 126 86 4 0 263 -292 577
-649 313 -358 573 -650 578 -650 5 -1 6 60 2 142 -7 157 8 1128 24 1497 39
922 112 1658 215 2191 112 575 129 732 129 1164 0 334 -8 455 -49 748 -70 484
-204 965 -389 1396 -20 46 -34 86 -31 89 3 3 29 -17 58 -45 111 -109 256 -177
477 -224 138 -30 433 -37 600 -15 246 33 464 105 602 200 31 21 68 26 68 10 0
-2 -23 -84 -50 -181 -210 -741 -349 -1425 -407 -2013 -21 -220 -24 -687 -5
-840 8 -58 31 -199 52 -315 164 -881 262 -1965 301 -3290 6 -214 12 -391 13
-392 1 -1 260 292 576 652 l574 654 31 -23 c443 -338 1036 -659 1373 -745 105
-27 153 -27 178 0 16 18 20 40 22 141 8 268 -82 800 -322 1918 -47 217 -128
595 -181 840 -186 863 -271 1318 -299 1595 -24 233 -36 555 -36 971 l0 381
188 -48 c722 -187 1404 -313 2007 -370 207 -20 637 -17 769 5 198 32 325 84
393 159 98 109 192 406 235 747 17 137 17 573 -1 700 -44 319 -113 523 -232
687 -105 145 -161 291 -190 493 -19 134 -13 463 12 750 29 329 32 637 6 729
-24 87 -64 157 -112 197 -333 272 -1226 122 -2500 -421 -946 -403 -1936 -950
-2502 -1382 l-122 -93 -47 50 c-79 85 -201 141 -383 177 -130 26 -410 23 -561
-5 -242 -45 -428 -134 -461 -220 -9 -23 -9 -23 -62 21 -364 308 -1274 844
-2057 1212 -1228 578 -2202 859 -2714 784z"/>
</g>
</svg>
