<?xml version="1.0" standalone="no"?>
<!DOCTYPE svg PUBLIC "-//W3C//DTD SVG 20010904//EN"
 "http://www.w3.org/TR/2001/REC-SVG-20010904/DTD/svg10.dtd">
<svg version="1.0" xmlns="http://www.w3.org/2000/svg"
 width="327.000000pt" height="80.000000pt" viewBox="0 0 327.000000 80.000000"
 preserveAspectRatio="xMidYMid meet">

<g transform="translate(0.000000,80.000000) scale(0.100000,-0.100000)"
fill="#000000" stroke="none">
<path d="M228 724 c-55 -29 -62 -74 -18 -124 46 -54 41 -60 -51 -60 l-81 0 6
-77 c22 -348 25 -376 38 -384 7 -5 121 -8 253 -6 l240 2 5 140 c3 82 11 149
18 162 6 12 12 51 12 86 0 73 -4 76 -90 77 -64 0 -74 9 -50 45 26 39 25 57 -3
83 -34 32 -72 28 -107 -9 l-28 -31 -26 40 c-25 40 -61 72 -81 72 -5 -1 -22 -7
-37 -16z m55 -52 c20 -21 42 -80 34 -89 -9 -8 -74 35 -81 53 -6 17 9 54 23 54
4 0 15 -8 24 -18z m197 -40 c0 -10 -5 -23 -12 -30 -13 -13 -48 -16 -48 -4 0
16 32 52 46 52 8 0 14 -8 14 -18z m-160 -172 l0 -40 -100 0 -100 0 0 34 c0 19
6 37 13 39 6 3 51 6 100 6 l87 1 0 -40z m280 0 l0 -40 -95 0 -95 0 0 40 0 40
95 0 95 0 0 -40z m-280 -205 l0 -135 -85 0 -85 0 0 135 0 135 85 0 85 0 0
-135z m250 0 l0 -135 -80 0 -80 0 0 135 0 135 80 0 80 0 0 -135z"/>
<path d="M1034 445 c-9 -23 3 -45 25 -45 23 0 32 18 19 43 -11 21 -37 22 -44
2z"/>
<path d="M2640 440 c-8 -15 -6 -21 9 -29 26 -14 50 12 31 34 -17 20 -27 19
-40 -5z"/>
<path d="M2803 450 c-13 -5 -26 -23 -32 -45 -5 -21 -18 -43 -28 -51 -17 -14
-17 -15 5 -30 20 -15 22 -25 22 -101 0 -64 -5 -93 -20 -124 -19 -35 -19 -40
-4 -46 10 -3 25 4 41 20 24 24 27 34 31 131 4 98 6 107 29 121 26 18 23 35 -8
35 -13 0 -19 7 -19 24 0 18 8 27 31 35 27 9 30 13 19 26 -14 17 -34 18 -67 5z"/>
<path d="M835 426 c-45 -19 -67 -60 -72 -130 -5 -71 15 -121 59 -146 22 -12
35 -12 70 -3 23 6 45 10 47 8 2 -2 -9 -25 -23 -50 -24 -41 -25 -46 -10 -52 12
-4 26 4 46 26 27 31 29 36 26 114 -3 73 -5 82 -22 82 -14 0 -22 -10 -28 -31
-4 -17 -16 -39 -27 -48 -42 -38 -81 3 -81 87 0 85 46 136 99 107 24 -12 41 -6
41 15 0 13 -50 35 -79 35 -9 -1 -30 -7 -46 -14z"/>
<path d="M1717 433 c-3 -4 -8 -64 -12 -133 -4 -69 -9 -133 -11 -142 -4 -14 1
-18 25 -18 l31 0 0 70 c0 39 3 70 8 70 4 0 23 -30 42 -68 20 -37 42 -67 50
-67 8 0 30 30 50 67 19 38 38 68 42 68 4 0 8 -30 10 -67 3 -63 5 -68 27 -71
l23 -4 -7 139 c-5 94 -11 143 -21 152 -21 22 -36 2 -78 -104 -21 -52 -41 -95
-46 -95 -4 0 -27 46 -51 102 -41 94 -67 126 -82 101z"/>
<path d="M2440 427 c-46 -23 -70 -73 -70 -146 0 -120 56 -167 153 -126 24 10
22 -15 -3 -48 -42 -53 -6 -81 41 -31 21 22 24 37 28 116 3 89 3 90 -20 86 -15
-2 -25 -12 -30 -32 -10 -35 -37 -66 -59 -66 -63 0 -79 152 -21 205 16 13 26
15 54 7 24 -7 39 -6 46 1 17 17 13 24 -20 36 -41 14 -68 14 -99 -2z"/>
<path d="M2917 379 c-38 -41 -38 -41 -18 -56 17 -12 21 -25 21 -76 0 -75 18
-107 59 -107 16 0 34 7 41 15 10 12 8 16 -13 24 -26 10 -37 36 -37 93 0 30 5
39 26 50 32 16 33 31 2 38 -16 4 -24 14 -26 33 -2 15 -6 27 -10 27 -4 -1 -24
-19 -45 -41z"/>
<path d="M1435 361 c-38 -16 -58 -50 -63 -104 -6 -75 8 -103 58 -118 44 -13
90 -4 98 19 2 8 -9 12 -36 12 -38 0 -72 19 -72 40 0 4 16 11 36 15 20 3 47 17
60 30 59 59 -2 138 -81 106z m50 -61 c0 -24 -39 -55 -57 -44 -14 9 -9 42 8 59
23 23 49 15 49 -15z"/>
<path d="M2101 357 c-65 -33 -81 -157 -26 -205 25 -21 35 -23 79 -17 27 3 54
8 58 11 18 12 -6 24 -46 24 -69 0 -89 41 -26 55 33 7 80 57 80 85 0 23 -46 60
-74 60 -11 0 -32 -6 -45 -13z m66 -44 c7 -18 -42 -67 -61 -60 -13 5 -10 45 5
64 16 18 48 16 56 -4z"/>
<path d="M3080 350 c-32 -32 -25 -67 20 -107 52 -47 52 -63 1 -63 -68 0 -59
-35 12 -47 29 -4 40 -1 61 20 39 39 34 68 -19 111 -56 46 -60 71 -10 63 40 -7
57 10 30 30 -27 19 -72 16 -95 -7z"/>
<path d="M1037 354 c-4 -4 -7 -44 -7 -88 0 -88 15 -126 50 -126 27 0 35 18 16
38 -10 12 -16 43 -18 97 -2 63 -6 80 -18 83 -9 1 -19 0 -23 -4z"/>
<path d="M1157 354 c-4 -4 -7 -45 -7 -91 0 -71 3 -86 21 -104 26 -26 80 -21
114 11 28 26 48 93 43 145 -2 32 -7 40 -23 40 -17 0 -21 -9 -27 -63 -9 -83
-42 -136 -64 -101 -3 6 -9 46 -13 88 -4 57 -10 77 -21 79 -9 1 -19 0 -23 -4z"/>
<path d="M2647 354 c-11 -11 -8 -173 3 -195 11 -20 54 -26 65 -8 4 5 0 18 -9
27 -10 12 -16 43 -18 97 -2 63 -6 80 -18 83 -9 1 -19 0 -23 -4z"/>
</g>
</svg>
